<mxfile host="65bd71144e">
    <diagram id="06jHksgwFU9AOUPLek7R" name="Page-1">
        <mxGraphModel dx="561" dy="537" grid="1" gridSize="10" guides="1" tooltips="1" connect="1" arrows="1" fold="1" page="1" pageScale="1" pageWidth="850" pageHeight="1100" math="0" shadow="0">
            <root>
                <mxCell id="0"/>
                <mxCell id="1" parent="0"/>
                <mxCell id="2" value="RBx Platform" style="rounded=0;whiteSpace=wrap;html=1;verticalAlign=top;" vertex="1" parent="1">
                    <mxGeometry x="120" y="120" width="450" height="300" as="geometry"/>
                </mxCell>
                <mxCell id="3" value="GMSL Camera" style="rounded=0;whiteSpace=wrap;html=1;fillColor=#f5f5f5;strokeColor=#666666;fontColor=#333333;" vertex="1" parent="1">
                    <mxGeometry x="140" y="370" width="200" height="30" as="geometry"/>
                </mxCell>
                <mxCell id="6" value="HTP" style="rounded=0;whiteSpace=wrap;html=1;fillColor=#f5f5f5;strokeColor=#666666;fontColor=#333333;" vertex="1" parent="1">
                    <mxGeometry x="350" y="370" width="200" height="30" as="geometry"/>
                </mxCell>
                <mxCell id="7" value="ROS2 Jazzy&amp;nbsp;" style="rounded=0;whiteSpace=wrap;html=1;fillColor=#d5e8d4;strokeColor=#82b366;" vertex="1" parent="1">
                    <mxGeometry x="140" y="320" width="410" height="30" as="geometry"/>
                </mxCell>
                <mxCell id="8" value="qrb_ros_camera" style="rounded=0;whiteSpace=wrap;html=1;fillColor=#dae8fc;strokeColor=#6c8ebf;align=center;" vertex="1" parent="1">
                    <mxGeometry x="140" y="275" width="130" height="30" as="geometry"/>
                </mxCell>
                <mxCell id="9" value="qrb_ros_nn_interface&amp;nbsp;" style="rounded=0;whiteSpace=wrap;html=1;fillColor=#dae8fc;strokeColor=#6c8ebf;align=center;" vertex="1" parent="1">
                    <mxGeometry x="420" y="275" width="130" height="30" as="geometry"/>
                </mxCell>
                <mxCell id="10" value="sample_hand_detection" style="rounded=0;whiteSpace=wrap;html=1;verticalAlign=top;fillColor=#dae8fc;strokeColor=#6c8ebf;" vertex="1" parent="1">
                    <mxGeometry x="140" y="150" width="410" height="110" as="geometry"/>
                </mxCell>
                <mxCell id="11" value="palm_preprocesser" style="rounded=0;whiteSpace=wrap;html=1;" vertex="1" parent="1">
                    <mxGeometry x="157.5" y="180" width="170" height="30" as="geometry"/>
                </mxCell>
                <mxCell id="12" value="palm_postprocesser" style="rounded=0;whiteSpace=wrap;html=1;" vertex="1" parent="1">
                    <mxGeometry x="157.5" y="220" width="170" height="30" as="geometry"/>
                </mxCell>
                <mxCell id="13" value="landmark_preprocesser" style="rounded=0;whiteSpace=wrap;html=1;" vertex="1" parent="1">
                    <mxGeometry x="362.5" y="180" width="170" height="30" as="geometry"/>
                </mxCell>
                <mxCell id="14" value="lankmark_postprocesser" style="rounded=0;whiteSpace=wrap;html=1;" vertex="1" parent="1">
                    <mxGeometry x="362.5" y="220" width="170" height="30" as="geometry"/>
                </mxCell>
                <mxCell id="16" value="" style="endArrow=none;dashed=1;html=1;" edge="1" parent="1">
                    <mxGeometry width="50" height="50" relative="1" as="geometry">
                        <mxPoint x="140" y="360" as="sourcePoint"/>
                        <mxPoint x="530" y="360" as="targetPoint"/>
                    </mxGeometry>
                </mxCell>
                <mxCell id="17" value="palm_pre/postprocesser&lt;div&gt;-&amp;nbsp;&lt;/div&gt;" style="text;html=1;align=center;verticalAlign=middle;resizable=0;points=[];autosize=1;strokeColor=none;fillColor=none;" vertex="1" parent="1">
                    <mxGeometry x="590" y="135" width="150" height="40" as="geometry"/>
                </mxCell>
                <mxCell id="18" value="landmark_pre/postprocesser" style="text;html=1;align=center;verticalAlign=middle;resizable=0;points=[];autosize=1;strokeColor=none;fillColor=none;" vertex="1" parent="1">
                    <mxGeometry x="590" y="190" width="180" height="30" as="geometry"/>
                </mxCell>
                <mxCell id="19" value="image_publisher" style="rounded=0;whiteSpace=wrap;html=1;fillColor=#dae8fc;strokeColor=#6c8ebf;align=center;" vertex="1" parent="1">
                    <mxGeometry x="280" y="275" width="130" height="30" as="geometry"/>
                </mxCell>
            </root>
        </mxGraphModel>
    </diagram>
</mxfile>